<svg width="419" height="126" viewBox="0 0 419 126" xmlns="http://www.w3.org/2000/svg" xmlns:xlink="http://www.w3.org/1999/xlink"><defs><linearGradient x1="100%" y1="50%" x2="0%" y2="50%" id="a"><stop stop-color="#D6D6D7" offset="0%"/><stop stop-color="#FFF" stop-opacity="0" offset="100%"/></linearGradient><path d="M0 0h193v4a6 6 0 0 1-6 6H6a6 6 0 0 1-6-6V0z" id="b"/><path d="M3.375 0h91.25A3.375 3.375 0 0 1 98 3.375v53.25A3.375 3.375 0 0 1 94.625 60H3.375A3.375 3.375 0 0 1 0 56.625V3.375A3.375 3.375 0 0 1 3.375 0z" id="c"/><linearGradient x1="50%" y1="0%" x2="50%" y2="100%" id="f"><stop stop-opacity="0" offset="0%"/><stop stop-opacity=".5" offset="100%"/></linearGradient><path d="M16 31.988c-4.34 0-8.402-1.7-11.438-4.787a15.761 15.761 0 0 1-4.56-11.396c.004-.226.083-.442.226-.617a1.06 1.06 0 0 1 .541-.352 4.72 4.72 0 0 0 3.036-2.418.998.998 0 0 1 1.243-.477c3.23 1.223 6.372-1.25 6.372-4.392 0-.102-.016-.199-.029-.296l-.027-.21a1.003 1.003 0 0 1 .96-1.11 4.708 4.708 0 0 0 4.42-3.604c.3-1.264 1.598-2.045 2.91-1.742C26.924 2.28 32 8.646 32 16.073c0 8.774-7.178 15.915-16 15.915z" id="e"/><path d="M12 1.988c-.26 0-.52-.11-.71-.29-.18-.19-.29-.45-.29-.71 0-.26.11-.52.29-.71.38-.37 1.05-.37 1.42 0 .18.19.29.44.29.71 0 .26-.11.52-.29.71-.19.18-.45.29-.71.29z" id="h"/><filter x="-12.5%" y="-12.6%" width="150%" height="150.3%" filterUnits="objectBoundingBox" id="g"><feOffset dx=".5" dy=".5" in="SourceAlpha" result="shadowOffsetOuter1"/><feColorMatrix values="0 0 0 0 0.968627451 0 0 0 0 0.725490196 0 0 0 0 0.0117647059 0 0 0 1 0" in="shadowOffsetOuter1"/></filter><path d="M26 18.988c-.26 0-.52-.11-.71-.29-.18-.19-.29-.45-.29-.71 0-.26.11-.521.29-.71.38-.37 1.04-.37 1.42 0 .19.189.29.45.29.71 0 .26-.11.52-.29.71-.19.18-.45.29-.71.29z" id="i"/><filter x="-12.5%" y="-12.6%" width="125%" height="125.2%" filterUnits="objectBoundingBox" id="j"><feOffset dx=".5" dy=".5" in="SourceAlpha" result="shadowOffsetInner1"/><feComposite in="shadowOffsetInner1" in2="SourceAlpha" operator="arithmetic" k2="-1" k3="1" result="shadowInnerInner1"/><feColorMatrix values="0 0 0 0 0 0 0 0 0 0 0 0 0 0 0 0 0 0 0.5 0" in="shadowInnerInner1"/></filter><path d="M22 15.988c-.26 0-.52-.11-.71-.29-.18-.19-.29-.45-.29-.71 0-.26.11-.52.29-.71.37-.37 1.05-.37 1.42 0 .18.19.29.45.29.71 0 .26-.11.52-.29.71-.19.18-.45.29-.71.29z" id="k"/><filter x="-12.5%" y="-12.6%" width="125%" height="125.2%" filterUnits="objectBoundingBox" id="l"><feOffset dx=".5" dy=".5" in="SourceAlpha" result="shadowOffsetInner1"/><feComposite in="shadowOffsetInner1" in2="SourceAlpha" operator="arithmetic" k2="-1" k3="1" result="shadowInnerInner1"/><feColorMatrix values="0 0 0 0 0 0 0 0 0 0 0 0 0 0 0 0 0 0 0.5 0" in="shadowInnerInner1"/></filter><path d="M15 14.988c-.26 0-.52-.11-.71-.29-.18-.19-.29-.45-.29-.71 0-.26.11-.52.29-.71.38-.37 1.05-.37 1.42 0 .18.19.29.45.29.71 0 .26-.11.52-.29.71-.19.18-.45.29-.71.29z" id="m"/><filter x="-12.5%" y="-12.6%" width="125%" height="125.2%" filterUnits="objectBoundingBox" id="n"><feOffset dx=".5" dy=".5" in="SourceAlpha" result="shadowOffsetInner1"/><feComposite in="shadowOffsetInner1" in2="SourceAlpha" operator="arithmetic" k2="-1" k3="1" result="shadowInnerInner1"/><feColorMatrix values="0 0 0 0 0 0 0 0 0 0 0 0 0 0 0 0 0 0 0.5 0" in="shadowInnerInner1"/></filter><path d="M12 25.988c-.26 0-.52-.11-.71-.29-.18-.19-.29-.45-.29-.71 0-.26.11-.521.29-.71.37-.37 1.05-.37 1.42 0 .18.189.29.45.29.71 0 .26-.11.52-.29.71-.19.18-.44.29-.71.29z" id="o"/><filter x="-12.5%" y="-12.6%" width="125%" height="125.2%" filterUnits="objectBoundingBox" id="p"><feOffset dx=".5" dy=".5" in="SourceAlpha" result="shadowOffsetInner1"/><feComposite in="shadowOffsetInner1" in2="SourceAlpha" operator="arithmetic" k2="-1" k3="1" result="shadowInnerInner1"/><feColorMatrix values="0 0 0 0 0 0 0 0 0 0 0 0 0 0 0 0 0 0 0.5 0" in="shadowInnerInner1"/></filter><circle id="r" cx="5.5" cy="7.487" r="1.5"/><filter x="-8.3%" y="-8.3%" width="133.3%" height="133.3%" filterUnits="objectBoundingBox" id="q"><feOffset dx=".5" dy=".5" in="SourceAlpha" result="shadowOffsetOuter1"/><feColorMatrix values="0 0 0 0 0.968627451 0 0 0 0 0.725490196 0 0 0 0 0.0117647059 0 0 0 1 0" in="shadowOffsetOuter1"/></filter><circle id="s" cx="20.5" cy="9.488" r="1.5"/><filter x="-8.3%" y="-8.3%" width="116.7%" height="116.7%" filterUnits="objectBoundingBox" id="t"><feOffset dx=".5" dy=".5" in="SourceAlpha" result="shadowOffsetInner1"/><feComposite in="shadowOffsetInner1" in2="SourceAlpha" operator="arithmetic" k2="-1" k3="1" result="shadowInnerInner1"/><feColorMatrix values="0 0 0 0 0 0 0 0 0 0 0 0 0 0 0 0 0 0 0.5 0" in="shadowInnerInner1"/></filter><circle id="u" cx="19.5" cy="23.488" r="1.5"/><filter x="-8.3%" y="-8.3%" width="116.7%" height="116.7%" filterUnits="objectBoundingBox" id="v"><feOffset dx=".5" dy=".5" in="SourceAlpha" result="shadowOffsetInner1"/><feComposite in="shadowOffsetInner1" in2="SourceAlpha" operator="arithmetic" k2="-1" k3="1" result="shadowInnerInner1"/><feColorMatrix values="0 0 0 0 0 0 0 0 0 0 0 0 0 0 0 0 0 0 0.5 0" in="shadowInnerInner1"/></filter><circle id="w" cx="8.5" cy="18.488" r="1.5"/><filter x="-8.3%" y="-8.3%" width="116.7%" height="116.7%" filterUnits="objectBoundingBox" id="x"><feOffset dx=".5" dy=".5" in="SourceAlpha" result="shadowOffsetInner1"/><feComposite in="shadowOffsetInner1" in2="SourceAlpha" operator="arithmetic" k2="-1" k3="1" result="shadowInnerInner1"/><feColorMatrix values="0 0 0 0 0 0 0 0 0 0 0 0 0 0 0 0 0 0 0.5 0" in="shadowInnerInner1"/></filter></defs><g fill="none" fill-rule="evenodd"><path fill="url(#a)" transform="rotate(-180 370.809 111.968)" d="M318.309 108.968h105v6h-105z"/><g transform="translate(299 37)"><path d="M43.247 1c8.307 0 15.042 6.735 15.042 15.042v9.959a5.092 5.092 0 0 1-5.092 5.092H33.279A5.092 5.092 0 0 1 28.187 26v-9.959C28.187 7.735 34.922 1 43.23 1h.018z" stroke="#F5F5F7" stroke-width="2"/><path d="M65 77V15H48v62h17z" stroke="#E8EAED" stroke-width="2" fill="#FFF" fill-rule="nonzero"/><path d="M57.5 67.858v-50.97l1.134-.529L56.5 15v55l2.336-1.246-1.336-.896z" stroke="#E8EAED" stroke-width="3" fill="#FFF" fill-rule="nonzero"/><path d="M25.235 0h0c8.307 0 15.042 6.735 15.042 15.042v9.959a5.092 5.092 0 0 1-5.092 5.092H15.267A5.092 5.092 0 0 1 10.175 25v-9.959C10.175 6.735 16.91 0 25.217 0h.018z" stroke="#E8EAED" stroke-width="2"/><rect stroke="#E8EAED" stroke-width="2" fill="#F8F9FA" fill-rule="nonzero" x="1" y="15" width="48" height="62" rx="2"/></g><g transform="translate(42 14)"><path fill="url(#a)" d="M0 95h105v6H0z"/><path d="M105 1a7 7 0 0 0-7 7v85a7 7 0 0 0 7 7h124a7 7 0 0 0 7-7V8a7 7 0 0 0-7-7H105z" stroke="#E8EAED" stroke-width="2"/><path d="M100 93h47v6h-45a2 2 0 0 1-2-2v-4z" fill="#F8F9FA"/><rect stroke="#E8EAED" stroke-width="2" x="106" y="8" width="122" height="78" rx="1"/><path d="M99 93h47l2 6h-47a2 2 0 0 1-2-2v-4z" fill="#F8F9FA"/><path d="M223 92h66v3a5 5 0 0 1-5 5h-61v-8z" fill="#FFF"/><path stroke="#E8EAED" stroke-width="2" d="M98 92v3a5 5 0 0 0 5 5h181a5 5 0 0 0 5-5v-3H98zM146.32 92.403c0 5.065 2.182 7.597 6.547 7.597"/><path d="M199 91h32v2a3 3 0 0 1-3 3h-26a3 3 0 0 1-3-3v-2z" fill="#E8EAED"/></g><rect stroke="#E8EAED" stroke-width="2" fill-opacity=".2" fill="#FBBC04" x="148" y="22" width="122" height="78" rx="1"/><g transform="translate(160 31)"><mask id="d" fill="#fff"><use xlink:href="#c"/></mask><use fill="#FFF" fill-rule="nonzero" transform="matrix(1 0 0 -1 0 60)" xlink:href="#c"/><g mask="url(#d)" fill-rule="nonzero"><g transform="translate(33 18)"><use fill="#FBBC04" xlink:href="#e"/><use fill-opacity=".15" fill="url(#f)" xlink:href="#e"/></g><g transform="translate(33 18)"><use fill="#000" filter="url(#g)" xlink:href="#h"/><use fill="#572A07" xlink:href="#h"/></g><g transform="translate(33 18)"><use fill="#572A07" xlink:href="#i"/><use fill="#000" filter="url(#j)" xlink:href="#i"/></g><g transform="translate(33 18)"><use fill="#572A07" xlink:href="#k"/><use fill="#000" filter="url(#l)" xlink:href="#k"/></g><g transform="translate(33 18)"><use fill="#572A07" xlink:href="#m"/><use fill="#000" filter="url(#n)" xlink:href="#m"/></g><path d="M48 37.987c-.26 0-.52-.11-.71-.29-.18-.19-.29-.45-.29-.71 0-.26.11-.52.29-.71.38-.37 1.04-.37 1.42 0 .18.19.29.44.29.71 0 .27-.11.52-.29.71-.19.18-.45.29-.71.29z" fill="#572A07"/><g transform="translate(33 18)"><use fill="#572A07" xlink:href="#o"/><use fill="#000" filter="url(#p)" xlink:href="#o"/></g><g transform="translate(33 18)"><use fill="#000" filter="url(#q)" xlink:href="#r"/><use fill="#572A07" xlink:href="#r"/></g><g transform="translate(33 18)"><use fill="#572A07" xlink:href="#s"/><use fill="#000" filter="url(#t)" xlink:href="#s"/></g><g transform="translate(33 18)"><use fill="#572A07" xlink:href="#u"/><use fill="#000" filter="url(#v)" xlink:href="#u"/></g><g transform="translate(33 18)"><use fill="#572A07" xlink:href="#w"/><use fill="#000" filter="url(#x)" xlink:href="#w"/></g></g><rect fill="#FBBC04" mask="url(#d)" x="-1.125" width="101.375" height="9" rx="2.25"/><ellipse fill="#572A07" mask="url(#d)" cx="49.5" cy="63.625" rx="5.625" ry="1.125"/><circle fill="#FFF" mask="url(#d)" cx="5.063" cy="5.063" r="1.688"/></g><g transform="translate(52 21)"><path fill="#F1F1F3" fill-rule="nonzero" d="M26.491 65.805l.845-54.408h1.43l.85 54.408z"/><path d="M28.051 49.903a6.346 6.346 0 0 0-6.345-6.35" stroke="#F1F1F3" stroke-width="1.541"/><path d="M20.472 31.485c.763.624.806 1.954 1.411 2.645.605.691 1.959.994 2.4 1.78.48.87.039 2.113.288 2.972.279.984 1.287 1.858 1.195 2.74-.1.985-1.257 1.537-1.857 2.276-.6.74-.922 1.978-1.867 2.266-.85.264-1.92-.557-2.924-.639-.892-.072-2.016.624-2.97.298-.86-.293-1.354-1.526-2.218-2.02-.864-.495-2.108-.24-2.88-.865-.773-.624-.807-1.949-1.412-2.645-.604-.696-1.958-.988-2.4-1.776-.504-.873-.043-2.112-.288-2.97-.278-.99-1.286-1.863-1.195-2.746.096-.984 1.258-1.536 1.858-2.27.6-.735.921-1.978 1.867-2.271.85-.26 1.92.557 2.923.638.893.077 2.016-.624 2.971-.297.86.292 1.354 1.526 2.218 2.02.864.495 2.122.24 2.88.864z" fill="#F1F1F3" fill-rule="nonzero"/><path d="M28.051 49.903a6.35 6.35 0 0 1 6.35-6.35" stroke="#F1F1F3" stroke-width="1.541"/><path d="M35.63 31.485c-.758.624-.801 1.954-1.406 2.645-.605.691-1.958.994-2.4 1.78-.509.87-.043 2.113-.288 2.972-.283.984-1.286 1.858-1.2 2.74.1.985 1.258 1.537 1.862 2.276.605.74.917 1.978 1.868 2.266.844.264 1.92-.557 2.923-.639.888-.072 2.016.624 2.971.298.86-.293 1.354-1.526 2.213-2.02.859-.495 2.112-.24 2.88-.865.768-.624.801-1.949 1.406-2.645.605-.696 1.959-.988 2.4-1.776.509-.873.043-2.112.288-2.97.283-.99 1.291-1.863 1.2-2.746-.1-.984-1.257-1.536-1.862-2.27-.605-.735-.917-1.978-1.867-2.271-.845-.26-1.92.557-2.924.638-.888.077-2.016-.624-2.97-.297-.86.292-1.354 1.526-2.214 2.02-.859.495-2.121.24-2.88.864z" fill="#F1F1F3" fill-rule="nonzero"/><path d="M28.051 30.506a5.117 5.117 0 0 0-5.121-5.121" stroke="#F1F1F3" stroke-width="1.541"/><path d="M21.931 15.645c.615.504.648 1.575 1.138 2.136.49.562 1.584.802 1.949 1.44.408.706.033 1.704.235 2.4.225.797 1.037 1.503.96 2.213-.077.797-1.013 1.243-1.503 1.839-.49.595-.739 1.598-1.507 1.828-.681.212-1.536-.446-2.357-.513-.72-.058-1.632.504-2.4.24-.696-.235-1.094-1.234-1.79-1.632-.696-.399-1.704-.192-2.314-.696-.61-.504-.652-1.58-1.137-2.136-.485-.557-1.584-.802-1.949-1.44-.413-.706-.038-1.71-.235-2.4-.226-.797-1.042-1.503-.96-2.218.077-.792 1.013-1.238 1.502-1.833.49-.596.74-1.599 1.503-1.834.686-.206 1.54.451 2.361.518.72.058 1.632-.48 2.4-.24s1.095 1.234 1.79 1.632c.697.399 1.705.192 2.314.696z" fill="#F1F1F3" fill-rule="nonzero"/><path d="M28.051 30.506a5.122 5.122 0 0 1 5.127-5.121" stroke="#F1F1F3" stroke-width="1.541"/><path d="M34.171 15.645c-.614.504-.648 1.575-1.137 2.136-.49.562-1.58.802-1.95 1.44-.407.706-.033 1.704-.23 2.4-.225.797-1.041 1.503-.96 2.213.082.797 1.018 1.243 1.503 1.839.485.595.744 1.598 1.507 1.828.686.212 1.536-.446 2.362-.513.72-.058 1.627.504 2.4.24.69-.235 1.09-1.234 1.785-1.632.696-.399 1.704-.192 2.319-.696.614-.504.648-1.58 1.137-2.136.49-.557 1.58-.802 1.949-1.44.408-.706.034-1.71.23-2.4.23-.797 1.042-1.503.96-2.218-.081-.792-1.017-1.238-1.502-1.833-.485-.596-.744-1.599-1.507-1.834-.682-.206-1.536.451-2.362.518-.72.058-1.627-.48-2.4-.24-.773.24-1.094 1.234-1.79 1.632-.696.399-1.7.192-2.314.696zM23.194 7.11c0 .644.662 1.215.763 1.81.1.596-.303 1.407-.091 1.964.21.557 1.056.897 1.392 1.377.384.552.417 1.44.902 1.748.485.307 1.3 0 1.92 0 .62 0 1.387.35 1.92 0 .533-.35.48-1.2.883-1.757.331-.48 1.152-.768 1.378-1.387.225-.62-.216-1.32-.11-1.964.105-.643.748-1.176.748-1.819s-.662-1.214-.768-1.81c-.105-.595.307-1.406.096-1.967-.211-.562-1.046-.922-1.382-1.402-.336-.48-.413-1.44-.898-1.747-.485-.307-1.305 0-1.92 0-.614 0-1.387-.35-1.92 0-.533.35-.504 1.2-.883 1.757-.331.48-1.152.768-1.382 1.387-.23.619.22 1.32.115 1.963-.106.643-.768 1.2-.763 1.848z" fill="#F1F1F3" fill-rule="nonzero"/><path d="M46.464 93H9.638a2.821 2.821 0 0 1-2.822-2.586l-2.65-34.395a2.794 2.794 0 0 1 .748-2.118A2.85 2.85 0 0 1 6.989 53h42.125c.788 0 1.54.326 2.076.9.536.572.806 1.34.746 2.12l-2.65 34.394A2.816 2.816 0 0 1 46.464 93z" stroke="#E8EAED" stroke-width="2" fill="#F8F9FA" fill-rule="nonzero"/><rect stroke="#E8EAED" stroke-width="2" fill="#FFF" fill-rule="nonzero" y="50.546" width="56.102" height="8.203" rx="1.781"/></g></g></svg>