<svg width="419" height="126" viewBox="0 0 419 126" xmlns="http://www.w3.org/2000/svg" xmlns:xlink="http://www.w3.org/1999/xlink"><defs><linearGradient x1="100%" y1="50%" x2="0%" y2="50%" id="a"><stop stop-color="#D6D6D7" offset="0%"/><stop stop-color="#FFF" stop-opacity="0" offset="100%"/></linearGradient><path d="M0 0h193v4a6 6 0 0 1-6 6H6a6 6 0 0 1-6-6V0z" id="b"/><linearGradient x1="50%" y1="0%" x2="50%" y2="100%" id="d"><stop stop-color="#367CEA" offset="0%"/><stop stop-color="#2570DC" offset="100%"/></linearGradient><path d="M76 0a4 4 0 0 1 4 4v39.5a4 4 0 0 1-4 4H49.133C44.928 48.585 42.343 53 40 53c-2.344 0-5.172-4.418-9.227-5.502L4 47.5a4 4 0 0 1-4-4V4a4 4 0 0 1 4-4h72z" id="c"/><path d="M33.266 4.358h-7.669l-1.47-2.708C23.573.638 22.442 0 21.206 0h-6.89c-1.239 0-2.37.642-2.922 1.656l-1.47 2.709H2.255C1.01 4.368.002 5.292 0 6.43v17.207c.004 1.138 1.011 2.06 2.255 2.064h31.01c1.245-.003 2.252-.926 2.256-2.064V6.425c-.003-1.14-1.01-2.063-2.255-2.067z" id="f"/><linearGradient x1="50.058%" y1="66.069%" x2="50.058%" y2="-31.653%" id="h"><stop stop-color="#DADCE0" stop-opacity="0" offset="0%"/><stop stop-color="#DADCE0" offset="100%"/></linearGradient><linearGradient x1="-.004%" y1="49.947%" x2="98.708%" y2="49.947%" id="i"><stop stop-color="#202124" stop-opacity="0" offset="0%"/><stop stop-color="#202124" offset="20.861%"/><stop stop-color="#202124" stop-opacity=".97" offset="77.708%"/><stop stop-color="#202124" stop-opacity="0" offset="100%"/></linearGradient><path d="M9.588 0a6.016 6.016 0 0 1 6.016 6.016v4.834c-6.016.023-3.003.023-12.032.023V6.016A6.016 6.016 0 0 1 9.588 0z" id="j"/><linearGradient x1="115.776%" y1="33.255%" x2="-176.007%" y2="169.271%" id="m"><stop stop-color="#FBBC05" offset="0%"/><stop stop-color="#FBBC05" offset="24.264%"/><stop stop-color="#FBBC05" offset="100%"/></linearGradient><path d="M15.603 10.873l.001 4.167a6.016 6.016 0 0 1-12.032 0v-4.167h12.031z" id="l"/><linearGradient x1="42.748%" y1="59.913%" x2="-121.122%" y2="45.403%" id="o"><stop stop-color="#FFF" offset="0%"/><stop stop-color="#D7DADD" offset="24.264%"/><stop stop-color="#BDC1C5" offset="100%"/></linearGradient></defs><g fill="none" fill-rule="evenodd"><g transform="translate(42 14)"><path fill="url(#a)" d="M0 95h105v6H0z"/><path d="M105 1a7 7 0 0 0-7 7v85a7 7 0 0 0 7 7h124a7 7 0 0 0 7-7V8a7 7 0 0 0-7-7H105z" stroke="#E8EAED" stroke-width="2"/><path d="M100 93h47v6h-45a2 2 0 0 1-2-2v-4z" fill="#F8F9FA"/><rect stroke="#E8EAED" stroke-width="2" x="106" y="8" width="122" height="78" rx="1"/><path d="M99 93h47l2 6h-47a2 2 0 0 1-2-2v-4z" fill="#F8F9FA"/><path d="M223 92h66v3a5 5 0 0 1-5 5h-61v-8z" fill="#FFF"/><path stroke="#E8EAED" stroke-width="2" d="M98 92v3a5 5 0 0 0 5 5h181a5 5 0 0 0 5-5v-3H98zM146.32 92.403c0 5.065 2.182 7.597 6.547 7.597"/><path d="M199 91h32v2a3 3 0 0 1-3 3h-26a3 3 0 0 1-3-3v-2z" fill="#E8EAED"/></g><rect stroke="#E8EAED" stroke-width="2" fill-opacity=".2" fill="#4285F4" x="148" y="22" width="122" height="78" rx="1"/><circle fill="#FFF" cx="209" cy="19" r="2"/><g transform="translate(169 34)"><mask id="e" fill="#fff"><use xlink:href="#c"/></mask><g fill-rule="nonzero" transform="matrix(1 0 0 -1 0 53)"><use fill="#D2DFF5" xlink:href="#c"/><use fill="url(#d)" xlink:href="#c"/></g><g mask="url(#e)"><g transform="translate(23 16)"><mask id="g" fill="#fff"><use xlink:href="#f"/></mask><use fill="#F8F9FA" fill-rule="nonzero" xlink:href="#f"/><path fill="#DADCE0" mask="url(#g)" d="M5-3h25v7.3H5z"/><circle fill="#2A2C33" mask="url(#g)" cx="17.357" cy="14.792" r="7"/><circle fill="#F8F9FA" fill-rule="nonzero" mask="url(#g)" cx="15" cy="13" r="1"/></g></g></g><path d="M326.013 59.2h-.045a2.82 2.82 0 0 1-2.165-1.421c-1.42-2.625-4.412-4.112-7.473-3.715-3.06.396-5.53 2.59-6.17 5.483-.641 2.891.687 5.856 3.317 7.407 2.63 1.55 5.994 1.352 8.405-.496 1.338 1.494 3.547 1.96 5.418 1.144 1.87-.817 2.951-2.72 2.65-4.666-.302-1.946-1.912-3.467-3.95-3.73l.013-.005z" fill="url(#h)" fill-rule="nonzero"/><path d="M303.8 44.076h22c2.095 0 3.79-.912 5.986-2.776 2.703-2.294 2.712-2.3 3.214-2.3.487 0 .288-.153 3.107 2.293 2.14 1.857 3.885 2.783 6.093 2.783h20a3.8 3.8 0 0 1 3.8 3.8V79.2a3.8 3.8 0 0 1-3.8 3.8h-60.4a3.8 3.8 0 0 1-3.8-3.8V47.876a3.8 3.8 0 0 1 3.8-3.8z" stroke="#E8EAED" stroke-width="2" fill="#F8F9FA" fill-rule="nonzero"/><path fill="url(#i)" fill-rule="nonzero" opacity=".04" transform="rotate(-180 334.5 77.8)" d="M323 77h23v1.6h-23z"/><g fill-rule="nonzero"><path d="M53.8 44.076h22c2.095 0 3.79-.912 5.986-2.776C84.49 39.006 84.498 39 85 39c.487 0 .288-.153 3.107 2.293 2.14 1.857 3.885 2.783 6.093 2.783h20a3.8 3.8 0 0 1 3.8 3.8V79.2a3.8 3.8 0 0 1-3.8 3.8H53.8a3.8 3.8 0 0 1-3.8-3.8V47.876a3.8 3.8 0 0 1 3.8-3.8z" stroke="#E8EAED" stroke-width="2" fill="#F8F9FA"/><path fill="url(#i)" opacity=".04" transform="rotate(-180 47.5 49.3)" d="M0 23h23v1.6H0z"/><path d="M83.803 51a8.777 8.777 0 0 0-8.788 8.788c0 1.695.541 3.314 1.295 4.644l5.727 9.913c.36.647 1.083.971 1.766.971s1.371-.324 1.766-.971l5.727-9.907c.76-1.33 1.295-2.92 1.295-4.644A8.782 8.782 0 0 0 83.803 51zm0 11.384a3.216 3.216 0 0 1-3.208-3.208 3.216 3.216 0 0 1 3.208-3.208 3.216 3.216 0 0 1 3.208 3.208 3.212 3.212 0 0 1-3.208 3.208z" fill="#34A853"/></g><g transform="translate(325 51)"><mask id="k" fill="#fff"><use xlink:href="#j"/></mask><use fill="#5F6368" xlink:href="#j"/><path d="M3.826 7.693a.376.376 0 1 1 0 0zm.365-.898a.377.377 0 1 0 .533.532.377.377 0 0 0-.533-.532zm.898-.899a.374.374 0 0 0 0 .533.377.377 0 1 0 0-.533zm.898-.898a.374.374 0 0 0 0 .533.377.377 0 1 0 0-.533zm.898-.898a.374.374 0 0 0 0 .533.377.377 0 0 0 .533-.533.374.374 0 0 0-.54 0h.007zm.898-.898a.374.374 0 0 0 0 .533.377.377 0 1 0 0-.533zm.898-.898a.374.374 0 0 0 0 .533.377.377 0 1 0 0-.533zm.898-.898a.374.374 0 0 0 0 .533.377.377 0 1 0 0-.533zm.899-.898a.374.374 0 0 0 0 .533.377.377 0 1 0 0-.533zm.898-.898a.374.374 0 0 0 0 .533.378.378 0 0 0 .63-.364.377.377 0 0 0-.63-.17zm.898-.898a.374.374 0 0 0 0 .532.377.377 0 1 0 0-.533zm.898-.898a.374.374 0 0 0 0 .532.378.378 0 0 0 .63-.364.377.377 0 0 0-.63-.168zM4.754 9.156a.378.378 0 1 0 .535.534.378.378 0 0 0-.535-.534zm.9-.898a.374.374 0 0 0 0 .533.377.377 0 1 0 0-.533zm.898-.898a.374.374 0 0 0 0 .532.377.377 0 1 0 0-.532zm.898-.898a.374.374 0 0 0 0 .532.377.377 0 1 0 0-.532zm.898-.899a.374.374 0 0 0 0 .533.377.377 0 1 0 0-.533zm.898-.898a.374.374 0 0 0 0 .533.377.377 0 0 0 .533-.533.374.374 0 0 0-.537 0h.004zm.899-.898a.374.374 0 0 0 0 .533.377.377 0 1 0 0-.533zm.898-.898a.374.374 0 0 0 0 .533.377.377 0 1 0 0-.533zm.898-.898a.374.374 0 0 0 0 .533.376.376 0 0 0 .524-.529.374.374 0 0 0-.524 0v-.004zm.898-.9a.378.378 0 0 0 .533.535.378.378 0 0 0-.533-.535zm.898-.898a.378.378 0 1 0 .502.565.378.378 0 0 0-.502-.565zm.898-.898a.378.378 0 1 0 .502.565.378.378 0 0 0-.502-.565zM4.556 7.89a.377.377 0 1 0 .533.533.377.377 0 0 0-.533-.533zm.898-.898a.377.377 0 1 0 .533.533.377.377 0 0 0-.533-.533zm.898-.898a.377.377 0 1 0 .533.533.377.377 0 0 0-.533-.533zm.898-.898a.377.377 0 1 0 .533 0 .378.378 0 0 0-.533.002v-.002zm.899-.898a.378.378 0 0 0 .363.63.377.377 0 1 0-.363-.63zm.898-.898a.376.376 0 1 0 0 0zm.898-.898a.378.378 0 1 0 .535.534.378.378 0 0 0-.535-.534zm.898-.898a.378.378 0 1 0 .535.534.378.378 0 0 0-.535-.534zm.898-.898a.378.378 0 1 0 .535.534.378.378 0 0 0-.535-.534zm.898-.899a.378.378 0 1 0 .535.535.378.378 0 0 0-.535-.535zm.9-.898a.377.377 0 1 0 .533.533.377.377 0 0 0-.533-.533zm.898-.898a.374.374 0 0 0 0 .533.377.377 0 1 0 0-.533zM1.83 6.23a.377.377 0 1 0 .532.533.377.377 0 0 0-.532-.533zm.898-.898a.377.377 0 1 0 .533.533.377.377 0 0 0-.533-.533zm.898-.898a.377.377 0 1 0 .533.533.377.377 0 0 0-.533-.533zm.898-.898a.377.377 0 1 0 .533 0 .374.374 0 0 0-.542 0h.009zm.898-.898a.376.376 0 1 0 .533.53.376.376 0 0 0-.533-.53zm.898-.898a.374.374 0 0 0 0 .533.378.378 0 0 0 .63-.364.377.377 0 0 0-.63-.169zm.898-.898a.374.374 0 0 0 0 .533.377.377 0 1 0 0-.533zm.898-.898a.374.374 0 0 0 0 .533.378.378 0 0 0 .63-.364.377.377 0 0 0-.63-.17zm.898-.898a.374.374 0 0 0 0 .533.377.377 0 1 0 0-.533zm.898-.898a.374.374 0 0 0 0 .532.377.377 0 1 0 0-.533zm.899-.899a.377.377 0 1 0 .532.533.377.377 0 0 0-.532-.533zm.898-.898a.38.38 0 1 0 .541 0 .377.377 0 0 0-.533 0h-.008zM3.093 6.427a.378.378 0 0 0 .364.63.377.377 0 1 0-.364-.63zm.898-.898a.377.377 0 1 0 .533.533.377.377 0 0 0-.533-.533zm.898-.898a.378.378 0 1 0 .535.535.378.378 0 0 0-.535-.535zm.898-.898a.378.378 0 1 0 .535.534.378.378 0 0 0-.535-.534zm.898-.898a.378.378 0 1 0 .535.534.378.378 0 0 0-.535-.534zm.898-.898a.378.378 0 1 0 .535.534.378.378 0 0 0-.535-.534zm.899-.898a.378.378 0 1 0 .535.534.378.378 0 0 0-.535-.534zm.9-.899a.377.377 0 1 0 .533.533.377.377 0 0 0-.533-.533zm.898-.898a.377.377 0 1 0 .533.533.377.377 0 0 0-.533-.533zm.896-.898a.377.377 0 1 0 .533.533.377.377 0 0 0-.533-.533zm.898-.898a.377.377 0 1 0 .002 0h-.002zm.898-.898a.377.377 0 1 0 .002 0h-.002zM6.215 10.619a.378.378 0 1 0 .002 0h-.002zm.898-.898a.378.378 0 1 0 .002 0h-.002zm.898-.898a.378.378 0 1 0 .002 0h-.002zm.898-.898a.378.378 0 1 0 .002 0H8.91zm.898-.898a.378.378 0 1 0 .002 0h-.002zm.9-.9a.378.378 0 1 0 .503.565.378.378 0 0 0-.503-.566zm.899-.899a.378.378 0 0 0 .532.535.378.378 0 0 0-.532-.535zm.898-.898a.378.378 0 1 0 .563.505.378.378 0 0 0-.563-.505zm.898-.898a.378.378 0 0 0 .533.535.378.378 0 0 0-.533-.535zm.898-.898a.378.378 0 0 0 .533.535.378.378 0 0 0-.533-.535zm.898-.898a.377.377 0 1 0 .533.533.377.377 0 0 0-.533-.533zm.898-.898a.377.377 0 1 0 .533.533.377.377 0 0 0-.533-.533zM6.02 9.354a.377.377 0 1 0 .533.533.377.377 0 0 0-.533-.533zm.898-.899a.377.377 0 1 0 .533.533.377.377 0 0 0-.533-.533zm.898-.898a.376.376 0 1 0 0 0zm.899-.898a.376.376 0 1 0 0 0zm.898-.898a.376.376 0 1 0 0 0zm.898-.898a.376.376 0 1 0 0 0zm.898-.898a.376.376 0 1 0 0 0zm.898-.898a.376.376 0 1 0 0 0zm.898-.898a.377.377 0 1 0 .533.533.377.377 0 0 0-.533-.533zm.898-.898a.377.377 0 1 0 .533.532.377.377 0 0 0-.533-.532zM15 .372a.378.378 0 1 0 .535.535A.378.378 0 0 0 15 .372zm.898-.898a.378.378 0 1 0 .535 0 .378.378 0 0 0-.53 0h-.005zm-8.218 12.6a.377.377 0 1 0 .533.532.377.377 0 0 0-.533-.532zm.898-.9a.378.378 0 0 0 .533.534.378.378 0 0 0-.533-.535zm.898-.899a.378.378 0 0 0 .533.535.378.378 0 0 0-.533-.535zm.898-.898a.378.378 0 1 0 .503.565.378.378 0 0 0-.503-.565zm.899-.898a.378.378 0 1 0 .535 0 .38.38 0 0 0-.535.009v-.009zm.898-.898a.378.378 0 1 0 .535 0 .38.38 0 0 0-.535.009v-.01zm.898-.898a.378.378 0 1 0 .535 0 .378.378 0 0 0-.535.02v-.02zm.898-.898a.378.378 0 1 0 .535 0 .378.378 0 0 0-.533.008l-.002-.008zm.9-.898a.377.377 0 1 0 .533.532.377.377 0 0 0-.533-.532zm.898-.898a.377.377 0 1 0 .533.532.377.377 0 0 0-.533-.532zm.898-.899a.377.377 0 1 0 .533.533.377.377 0 0 0-.533-.533zm.898-.898a.377.377 0 1 0 .533.533.377.377 0 0 0-.533-.533zM7.482 10.808a.376.376 0 1 0 .533 0 .374.374 0 0 0-.533.009v-.009zm.9-.883a.376.376 0 1 0 .534.53.376.376 0 0 0-.533-.53zm.899-.898a.376.376 0 1 0 .533 0 .374.374 0 0 0-.535-.007l.002.007zm.898-.898a.376.376 0 1 0 0 0zm.898-.898a.377.377 0 1 0 .533.533.377.377 0 0 0-.533-.533zm.898-.898a.377.377 0 1 0 .533.532.377.377 0 0 0-.533-.532zm.898-.898a.377.377 0 1 0 .533.532.377.377 0 0 0-.533-.532zm.898-.899a.377.377 0 1 0 .533.533.377.377 0 0 0-.533-.533zm.898-.898a.377.377 0 1 0 .533.533.377.377 0 0 0-.533-.533zm.899-.898a.377.377 0 1 0 .532.533.377.377 0 0 0-.532-.533zm.898-.898a.377.377 0 1 0 .532.533.377.377 0 0 0-.532-.533zm.898-.898a.377.377 0 1 0 .533.533.377.377 0 0 0-.533-.533z" fill="#282A2D" fill-rule="nonzero" mask="url(#k)" transform="rotate(45 9.962 4.478)"/><mask id="n" fill="#fff"><use xlink:href="#l"/></mask><use fill="url(#m)" xlink:href="#l"/><path fill="#000" opacity=".114" mask="url(#n)" d="M-.188-2.663h9.776v33.088H-.188z"/><path fill="url(#o)" mask="url(#n)" d="M3.196 10.121H15.98v2.256H3.196z"/><rect fill="#FBBC05" mask="url(#n)" x="6.58" y="25.913" width="6.016" height="1.504" rx=".752"/><rect fill="#FBBC05" mask="url(#n)" x="8.836" y="16.137" width="1.504" height="10.528" rx=".752"/><circle fill="#FBBC05" mask="url(#n)" cx="9.588" cy="16.513" r="1.88"/></g><path d="M569.1 201.7c38.8-.6 76.3 14 104.4 40.8l77.7-77.7C702 118.6 636.7 93.2 569.1 94c-102.9 0-197 58-243.2 150l90.4 70.1c21.5-64.5 81.8-112.4 152.8-112.4z" fill="#EA4335" fill-rule="nonzero"/></g></svg>