<svg width="419" height="126" viewBox="0 0 419 126" xmlns="http://www.w3.org/2000/svg" xmlns:xlink="http://www.w3.org/1999/xlink"><defs><linearGradient x1="100%" y1="50%" x2="0%" y2="50%" id="a"><stop stop-color="#D6D6D7" offset="0%"/><stop stop-color="#FFF" stop-opacity="0" offset="100%"/></linearGradient><path d="M0 0h193v4a6 6 0 0 1-6 6H6a6 6 0 0 1-6-6V0z" id="b"/><path d="M3.375 0h91.25A3.375 3.375 0 0 1 98 3.375v53.25A3.375 3.375 0 0 1 94.625 60H3.375A3.375 3.375 0 0 1 0 56.625V3.375A3.375 3.375 0 0 1 3.375 0z" id="c"/><circle id="e" cx="17" cy="18" r="17"/><path d="M9.975 22c5.516 0 9.582-4.925 9.582-11S16.017.467 10.5.467C4.984.467.557 3.76.557 11c0 7.24 3.901 11 9.418 11z" id="g"/></defs><g fill="none" fill-rule="evenodd"><path fill="url(#a)" transform="rotate(-180 370.809 111.968)" d="M318.309 108.968h105v6h-105z"/><g transform="translate(301 34.558)"><path d="M29 78.442C44.71 70.84 55.426 55.61 57.357 38.145a75.82 75.82 0 0 0 .643-8.45v-17.06L29 .442 0 12.632v17.06a75.82 75.82 0 0 0 .643 8.453C2.573 55.61 13.291 70.84 29 78.442z" stroke="#E8EAED" stroke-width="3" fill="#F8F9FA" fill-rule="nonzero"/><circle fill="#34A853" fill-rule="nonzero" cx="29" cy="35.442" r="19"/><path stroke="#FFF" stroke-width="6.74" d="M19 35.38l6.343 6.062 14.657-14"/></g><g transform="translate(42 14)"><path fill="url(#a)" d="M0 95h105v6H0z"/><path d="M105 1a7 7 0 0 0-7 7v85a7 7 0 0 0 7 7h124a7 7 0 0 0 7-7V8a7 7 0 0 0-7-7H105z" stroke="#E8EAED" stroke-width="2"/><path d="M100 93h47v6h-45a2 2 0 0 1-2-2v-4z" fill="#F8F9FA"/><rect stroke="#E8EAED" stroke-width="2" x="106" y="8" width="122" height="78" rx="1"/><path d="M99 93h47l2 6h-47a2 2 0 0 1-2-2v-4z" fill="#F8F9FA"/><path d="M223 92h66v3a5 5 0 0 1-5 5h-61v-8z" fill="#FFF"/><path stroke="#E8EAED" stroke-width="2" d="M98 92v3a5 5 0 0 0 5 5h181a5 5 0 0 0 5-5v-3H98zM146.32 92.403c0 5.065 2.182 7.597 6.547 7.597"/><path d="M199 91h32v2a3 3 0 0 1-3 3h-26a3 3 0 0 1-3-3v-2z" fill="#E8EAED"/></g><rect stroke="#E8EAED" stroke-width="2" fill-opacity=".2" fill="#34A853" x="148" y="22" width="122" height="78" rx="1"/><g transform="translate(160 31)"><mask id="d" fill="#fff"><use xlink:href="#c"/></mask><use fill="#FFF" fill-rule="nonzero" transform="matrix(1 0 0 -1 0 60)" xlink:href="#c"/><g mask="url(#d)"><g transform="matrix(-1 0 0 1 66 17)"><mask id="f" fill="#fff"><use xlink:href="#e"/></mask><use fill="#8FCBFB" xlink:href="#e"/><path fill="#E8AF48" mask="url(#f)" d="M16 26h5.5v4H16zM9 34.138C9.877 31.379 11.21 30 13 30s3.123.642 4 1.925l-4.824 4.436L9 34.138z"/><path d="M10 34.578c.733-3.892 3.103-5.838 7.11-5.838 4.006 0 7.606.806 10.8 2.417l-10.8 6.857L10 34.578z" fill="#3F85F7" mask="url(#f)"/><path d="M22 35.406C22.287 32.47 23.213 31 24.779 31c1.566 0 2.973.608 4.221 1.824L24.779 38 22 35.406z" fill="#E8AF48" mask="url(#f)"/><g transform="translate(8.057 5)"><mask id="h" fill="#fff"><use xlink:href="#g"/></mask><use fill="#E8AF48" xlink:href="#g"/><path d="M11.073 22c5.247 0 8.87-4.925 8.87-11 0-2.604-.736-2.876-1.566-.927-1.106 2.595-.434 6.547-4.538 9.247-3.197 2.104-3.927 2.03-7.882 1.379C8.94 22.553 9.45 22 11.073 22z" fill="#E2A039" mask="url(#h)"/><path d="M11.542 7.179c1.134 2.31 2.653 3.838 5.823 5.194.075.032.307.13.307-.054s-2.163-1.755-2.52-2.775c2.06 1.02 4.791 1.945 4.791.536 0-5.875-4.715-10.638-10.531-10.638-5.424 0-9.89 4.14-10.468 9.463-.042.386 2.694.639 4.437.639 1.743 0 4.818 0 8.16-2.365z" fill="#414141" mask="url(#h)"/></g><circle fill="#E2A039" cx="28" cy="17" r="2"/><ellipse fill="#454441" cx="12.75" cy="17.5" rx="1" ry="1"/><ellipse fill="#454441" cx="18.25" cy="17.5" rx="1" ry="1"/><path d="M14 22.03c1.39.875 2.714.875 3.969 0" stroke="#EC442B" stroke-width=".8" stroke-linecap="round"/><circle fill="#414141" cx="24" cy="4" r="4"/></g></g><rect fill="#34A853" mask="url(#d)" x="-1.125" width="101.375" height="9" rx="2.25"/><ellipse fill="#572A07" mask="url(#d)" cx="49.5" cy="63.625" rx="5.625" ry="1.125"/><circle fill="#FFF" mask="url(#d)" cx="5.063" cy="5.063" r="1.688"/></g><g transform="translate(52 21)"><path fill="#F1F1F3" fill-rule="nonzero" d="M26.491 65.805l.845-54.408h1.43l.85 54.408z"/><path d="M28.051 49.903a6.346 6.346 0 0 0-6.345-6.35" stroke="#F1F1F3" stroke-width="1.541"/><path d="M20.472 31.485c.763.624.806 1.954 1.411 2.645.605.691 1.959.994 2.4 1.78.48.87.039 2.113.288 2.972.279.984 1.287 1.858 1.195 2.74-.1.985-1.257 1.537-1.857 2.276-.6.74-.922 1.978-1.867 2.266-.85.264-1.92-.557-2.924-.639-.892-.072-2.016.624-2.97.298-.86-.293-1.354-1.526-2.218-2.02-.864-.495-2.108-.24-2.88-.865-.773-.624-.807-1.949-1.412-2.645-.604-.696-1.958-.988-2.4-1.776-.504-.873-.043-2.112-.288-2.97-.278-.99-1.286-1.863-1.195-2.746.096-.984 1.258-1.536 1.858-2.27.6-.735.921-1.978 1.867-2.271.85-.26 1.92.557 2.923.638.893.077 2.016-.624 2.971-.297.86.292 1.354 1.526 2.218 2.02.864.495 2.122.24 2.88.864z" fill="#F1F1F3" fill-rule="nonzero"/><path d="M28.051 49.903a6.35 6.35 0 0 1 6.35-6.35" stroke="#F1F1F3" stroke-width="1.541"/><path d="M35.63 31.485c-.758.624-.801 1.954-1.406 2.645-.605.691-1.958.994-2.4 1.78-.509.87-.043 2.113-.288 2.972-.283.984-1.286 1.858-1.2 2.74.1.985 1.258 1.537 1.862 2.276.605.74.917 1.978 1.868 2.266.844.264 1.92-.557 2.923-.639.888-.072 2.016.624 2.971.298.86-.293 1.354-1.526 2.213-2.02.859-.495 2.112-.24 2.88-.865.768-.624.801-1.949 1.406-2.645.605-.696 1.959-.988 2.4-1.776.509-.873.043-2.112.288-2.97.283-.99 1.291-1.863 1.2-2.746-.1-.984-1.257-1.536-1.862-2.27-.605-.735-.917-1.978-1.867-2.271-.845-.26-1.92.557-2.924.638-.888.077-2.016-.624-2.97-.297-.86.292-1.354 1.526-2.214 2.02-.859.495-2.121.24-2.88.864z" fill="#F1F1F3" fill-rule="nonzero"/><path d="M28.051 30.506a5.117 5.117 0 0 0-5.121-5.121" stroke="#F1F1F3" stroke-width="1.541"/><path d="M21.931 15.645c.615.504.648 1.575 1.138 2.136.49.562 1.584.802 1.949 1.44.408.706.033 1.704.235 2.4.225.797 1.037 1.503.96 2.213-.077.797-1.013 1.243-1.503 1.839-.49.595-.739 1.598-1.507 1.828-.681.212-1.536-.446-2.357-.513-.72-.058-1.632.504-2.4.24-.696-.235-1.094-1.234-1.79-1.632-.696-.399-1.704-.192-2.314-.696-.61-.504-.652-1.58-1.137-2.136-.485-.557-1.584-.802-1.949-1.44-.413-.706-.038-1.71-.235-2.4-.226-.797-1.042-1.503-.96-2.218.077-.792 1.013-1.238 1.502-1.833.49-.596.74-1.599 1.503-1.834.686-.206 1.54.451 2.361.518.72.058 1.632-.48 2.4-.24s1.095 1.234 1.79 1.632c.697.399 1.705.192 2.314.696z" fill="#F1F1F3" fill-rule="nonzero"/><path d="M28.051 30.506a5.122 5.122 0 0 1 5.127-5.121" stroke="#F1F1F3" stroke-width="1.541"/><path d="M34.171 15.645c-.614.504-.648 1.575-1.137 2.136-.49.562-1.58.802-1.95 1.44-.407.706-.033 1.704-.23 2.4-.225.797-1.041 1.503-.96 2.213.082.797 1.018 1.243 1.503 1.839.485.595.744 1.598 1.507 1.828.686.212 1.536-.446 2.362-.513.72-.058 1.627.504 2.4.24.69-.235 1.09-1.234 1.785-1.632.696-.399 1.704-.192 2.319-.696.614-.504.648-1.58 1.137-2.136.49-.557 1.58-.802 1.949-1.44.408-.706.034-1.71.23-2.4.23-.797 1.042-1.503.96-2.218-.081-.792-1.017-1.238-1.502-1.833-.485-.596-.744-1.599-1.507-1.834-.682-.206-1.536.451-2.362.518-.72.058-1.627-.48-2.4-.24-.773.24-1.094 1.234-1.79 1.632-.696.399-1.7.192-2.314.696zM23.194 7.11c0 .644.662 1.215.763 1.81.1.596-.303 1.407-.091 1.964.21.557 1.056.897 1.392 1.377.384.552.417 1.44.902 1.748.485.307 1.3 0 1.92 0 .62 0 1.387.35 1.92 0 .533-.35.48-1.2.883-1.757.331-.48 1.152-.768 1.378-1.387.225-.62-.216-1.32-.11-1.964.105-.643.748-1.176.748-1.819s-.662-1.214-.768-1.81c-.105-.595.307-1.406.096-1.967-.211-.562-1.046-.922-1.382-1.402-.336-.48-.413-1.44-.898-1.747-.485-.307-1.305 0-1.92 0-.614 0-1.387-.35-1.92 0-.533.35-.504 1.2-.883 1.757-.331.48-1.152.768-1.382 1.387-.23.619.22 1.32.115 1.963-.106.643-.768 1.2-.763 1.848z" fill="#F1F1F3" fill-rule="nonzero"/><path d="M46.464 93H9.638a2.821 2.821 0 0 1-2.822-2.586l-2.65-34.395a2.794 2.794 0 0 1 .748-2.118A2.85 2.85 0 0 1 6.989 53h42.125c.788 0 1.54.326 2.076.9.536.572.806 1.34.746 2.12l-2.65 34.394A2.816 2.816 0 0 1 46.464 93z" stroke="#E8EAED" stroke-width="2" fill="#F8F9FA" fill-rule="nonzero"/><rect stroke="#E8EAED" stroke-width="2" fill="#FFF" fill-rule="nonzero" y="50.546" width="56.102" height="8.203" rx="1.781"/></g></g></svg>