<svg fill="none" height="226" viewBox="0 0 680 226" width="680" xmlns="http://www.w3.org/2000/svg"><clipPath id="a"><path d="M0 0h680v226H0z"/></clipPath><g clip-path="url(#a)"><path d="M0 0h680v226H0z" fill="#3c4043"/><path d="M421 175.462c0 55.271-43.951 99.488-98.89 99.488C265.951 276.178 222 230.733 222 175.462s43.951-99.488 98.89-99.488c54.938 0 100.11 44.217 100.11 99.488z" fill="#5f6368"/><path d="M427.031 182.974h-82.062c-6.033 0-10.969-4.925-10.969-10.945V90.148c0-6.02 4.936-10.945 10.969-10.945h82.062c6.033 0 10.969 4.925 10.969 10.945v81.881c0 6.02-4.936 10.945-10.969 10.945z" fill="#d2e3fc"/><path d="M389.394 148.361h-6.788c-2.81 0-4.867-2.6-4.319-5.268l3.771-17.443h7.747l3.77 17.443c.686 2.737-1.439 5.268-4.181 5.268z" fill="#4285f4"/><path d="M395.838 118.057c0 5.473-4.388 9.85-9.872 9.85-5.485 0-9.872-4.377-9.872-9.85 0-5.472 4.387-9.85 9.872-9.85 5.484 0 9.872 4.378 9.872 9.85z" fill="#4285f4"/><path clip-rule="evenodd" d="M385.966 46.5c-12.955 0-23.455 10.482-23.455 23.4v9.303a1.5 1.5 0 1 1-3 0V69.9c0-14.581 11.85-26.4 26.455-26.4s26.454 11.819 26.454 26.4a1.5 1.5 0 1 1-3 0c0-12.918-10.5-23.4-23.454-23.4z" fill="#8ab4f8" fill-rule="evenodd"/><path clip-rule="evenodd" d="M361.011 77.703a1.5 1.5 0 0 1 1.5 1.5v65.122c0 12.918 10.5 23.399 23.455 23.399 12.954 0 23.454-10.481 23.454-23.399V79.203a1.5 1.5 0 0 1 3 0v65.122c0 14.581-11.849 26.399-26.454 26.399s-26.455-11.818-26.455-26.399V79.203a1.5 1.5 0 0 1 1.5-1.5z" fill="#fff" fill-rule="evenodd"/><path d="M138.425 173.925l-3.9-3.9c-.7-.7-.7-1.9 0-2.6l3.9-3.9c.7-.7 1.9-.7 2.6 0l3.9 3.9c.7.7.7 1.9 0 2.6l-3.9 3.9c-.7.8-1.9.8-2.6 0z" fill="#5f6368"/><path d="M100.323 42.8c0 4.3-3.5 7.8-7.8 7.8s-7.8-3.5-7.8-7.8 3.5-7.8 7.8-7.8 7.8 3.5 7.8 7.8z" fill="#fde293"/><path d="M543 141c0 2.8-2.2 5-5 5s-5-2.2-5-5 2.2-5 5-5 5 2.3 5 5z" fill="#f28b82"/><path clip-rule="evenodd" d="M594.346 158.207l12.063 1.097c2.474.142 4.64 1.7 5.657 3.975l5.095 10.99.01.022a6.989 6.989 0 0 1-.635 6.859l-.011.016-6.995 9.892c-1.399 2.03-3.818 3.189-6.276 2.935l-12.063-1.097c-2.473-.142-4.64-1.7-5.657-3.975l-5.095-10.99-.01-.022a6.989 6.989 0 0 1 .635-6.859l.011-.016 6.995-9.893c1.4-2.029 3.818-3.188 6.276-2.934zm-.303 2.985c-1.335-.141-2.708.495-3.507 1.658l-.011.016-6.994 9.891a3.992 3.992 0 0 0-.365 3.924l5.095 10.988.01.022c.582 1.309 1.798 2.142 3.108 2.211l.057.004 12.1 1.1.021.002c1.335.141 2.708-.496 3.507-1.658l.011-.016 6.994-9.892a3.99 3.99 0 0 0 .365-3.923l-5.095-10.988-.01-.022c-.581-1.309-1.798-2.142-3.108-2.211l-.057-.004-12.1-1.1z" fill="#80868b" fill-rule="evenodd"/><path d="M311.957 157.18l-11.617 20.177c-.962 1.607.24 3.617 2.083 3.617h23.154c1.843 0 3.045-2.01 2.083-3.617l-11.617-20.177c-.881-1.608-3.125-1.608-4.086 0z" fill="#8ab4f8"/><path clip-rule="evenodd" d="M304 145.974c8.284 0 15-6.716 15-15s-6.716-15-15-15-15 6.716-15 15 6.716 15 15 15zm0 2c9.389 0 17-7.611 17-17s-7.611-17-17-17-17 7.611-17 17 7.611 17 17 17z" fill="#f0a3f8" fill-rule="evenodd"/><path d="M274.012 182.634l-19.723-14.669c-1.238-.941-1.534-2.741-.594-3.98l14.67-19.722c.94-1.239 2.74-1.534 3.979-.594l19.722 14.669c1.239.941 1.535 2.741.594 3.98l-14.669 19.722c-.941 1.239-2.741 1.534-3.979.594z" fill="#fdd663"/><g clip-rule="evenodd" fill="#81c995" fill-rule="evenodd"><path d="M606.658 51.327c-2.626-.355-4.479 2.262-3.486 4.656l.004.007 9.274 21.356c1.032 2.472 4.33 2.763 5.869.69l13.804-18.591c1.539-2.074.307-5.146-2.357-5.42zm-1.641 3.883l9.274 21.354.003.008c.407.982 1.764 1.154 2.419.27l13.804-18.59c.656-.883.098-2.132-.959-2.237l-.009-.001-23.143-2.703-.011-.002c-.999-.137-1.813.84-1.378 1.9zM30.737 119.894a3 3 0 0 1 3.276-2.696l26.12 2.539a3 3 0 0 1 2.696 3.276l-2.538 26.121a2.999 2.999 0 0 1-3.276 2.695l-26.121-2.538a3.001 3.001 0 0 1-2.696-3.277zm3.083-.705a1 1 0 0 0-1.092.898l-2.54 26.121a1 1 0 0 0 .9 1.092l26.12 2.539a1 1 0 0 0 1.092-.899l2.539-26.12a1 1 0 0 0-.899-1.092z"/></g></g></svg>