/* XPM */
static char * nwjs_logo_32_xpm[] = {
"32 32 528 2",
"  	c None",
". 	c #C2C2C7",
"+ 	c #B0B0B4",
"@ 	c #B8B8BC",
"# 	c #5F5F69",
"$ 	c #5E5E67",
"% 	c #B7B7BA",
"& 	c #B1B1B5",
"* 	c #B2B2B8",
"= 	c #C2C2C6",
"- 	c #5E5E66",
"; 	c #1A1D2A",
"> 	c #222634",
", 	c #222835",
"' 	c #1A1D29",
") 	c #5C5C64",
"! 	c #C1C1C3",
"~ 	c #B2B3B7",
"{ 	c #B1B2B9",
"] 	c #BEBFC2",
"^ 	c #909094",
"/ 	c #1B1C28",
"( 	c #2A303D",
"_ 	c #3A4050",
": 	c #444B5B",
"< 	c #444B5A",
"[ 	c #3A4151",
"} 	c #1A1B28",
"| 	c #8A8A90",
"1 	c #BFBFC2",
"2 	c #B1B1B9",
"3 	c #BEBEC1",
"4 	c #AEAEB3",
"5 	c #32323B",
"6 	c #1F2431",
"7 	c #343A49",
"8 	c #474D5E",
"9 	c #515869",
"0 	c #545B6C",
"a 	c #545C6D",
"b 	c #525869",
"c 	c #484F60",
"d 	c #343B4B",
"e 	c #1F2430",
"f 	c #2E2F38",
"g 	c #A9A9AF",
"h 	c #BDBDC0",
"i 	c #BABAC0",
"j 	c #BCBCC0",
"k 	c #57575E",
"l 	c #10141E",
"m 	c #282E3B",
"n 	c #3D4352",
"o 	c #4C5364",
"p 	c #565D6E",
"q 	c #5C6376",
"r 	c #61687B",
"s 	c #60677B",
"t 	c #5D6477",
"u 	c #585E6F",
"v 	c #4E5566",
"w 	c #3F4655",
"x 	c #292F3D",
"y 	c #525259",
"z 	c #BCBDC2",
"A 	c #A7A7AF",
"B 	c #C2C2C4",
"C 	c #85858C",
"D 	c #161820",
"E 	c #1C222D",
"F 	c #2F3542",
"G 	c #3E4553",
"H 	c #49505F",
"I 	c #555B6D",
"J 	c #5F6579",
"K 	c #686F83",
"L 	c #6D748A",
"M 	c #6C7287",
"N 	c #697085",
"O 	c #61677B",
"P 	c #565D6F",
"Q 	c #4B5262",
"R 	c #3F4654",
"S 	c #303643",
"T 	c #1D232F",
"U 	c #16171F",
"V 	c #7B7B81",
"W 	c #BEBEC2",
"X 	c #A6A7AE",
"Y 	c #9B9BA0",
"Z 	c #A8A8AE",
"` 	c #2F2F36",
" .	c #11161F",
"..	c #222934",
"+.	c #303641",
"@.	c #373D4A",
"#.	c #414755",
"$.	c #4E5565",
"%.	c #5D6475",
"&.	c #697084",
"*.	c #747B90",
"=.	c #757C92",
"-.	c #777E94",
";.	c #747C91",
">.	c #6B7287",
",.	c #5F6578",
"'.	c #515868",
").	c #424957",
"!.	c #383E4A",
"~.	c #313642",
"{.	c #232934",
"].	c #111520",
"^.	c #2B2C33",
"/.	c #A2A2A7",
"(.	c #75757D",
"_.	c #ABABB0",
":.	c #14151D",
"<.	c #1D232D",
"[.	c #2B303B",
"}.	c #313742",
"|.	c #323844",
"1.	c #353B48",
"2.	c #404654",
"3.	c #4E5464",
"4.	c #6E768A",
"5.	c #7D859A",
"6.	c #7C849A",
"7.	c #7E869C",
"8.	c #7E879C",
"9.	c #70778B",
"0.	c #5F6779",
"a.	c #505667",
"b.	c #424856",
"c.	c #383D4A",
"d.	c #2C323F",
"e.	c #11141C",
"f.	c #A8A9AD",
"g.	c #696970",
"h.	c #84858B",
"i.	c #5A5A61",
"j.	c #1C212C",
"k.	c #30343F",
"l.	c #333844",
"m.	c #333945",
"n.	c #353B47",
"o.	c #393F4B",
"p.	c #404553",
"q.	c #484F5D",
"r.	c #5B6275",
"s.	c #6E778B",
"t.	c #80879D",
"u.	c #80889E",
"v.	c #71798E",
"w.	c #5D6577",
"x.	c #535A6C",
"y.	c #4A515F",
"z.	c #3A404C",
"A.	c #363B47",
"B.	c #343741",
"C.	c #313A4A",
"D.	c #2E3847",
"E.	c #212530",
"F.	c #62636A",
"G.	c #87888E",
"H.	c #8E8E95",
"I.	c #3E3F47",
"J.	c #2A2F3A",
"K.	c #313640",
"L.	c #333843",
"M.	c #3A3F4A",
"N.	c #3E4551",
"O.	c #464B59",
"P.	c #4C5161",
"Q.	c #52596A",
"R.	c #53596B",
"S.	c #565F70",
"T.	c #4D5363",
"U.	c #474D5B",
"V.	c #3E4756",
"W.	c #3B3E49",
"X.	c #393A46",
"Y.	c #1E63B5",
"Z.	c #1D4C87",
"`.	c #2E3644",
" +	c #2B313C",
".+	c #505158",
"++	c #919197",
"@+	c #939398",
"#+	c #393A41",
"$+	c #2A2F39",
"%+	c #2F343E",
"&+	c #303440",
"*+	c #333742",
"=+	c #393E4A",
"-+	c #3D4350",
";+	c #3B414E",
">+	c #424857",
",+	c #414654",
"'+	c #454C5A",
")+	c #434B5B",
"!+	c #41454F",
"~+	c #3E3F48",
"{+	c #33557F",
"]+	c #1F70C2",
"^+	c #0B88FF",
"/+	c #1A4373",
"(+	c #2B2A2F",
"_+	c #2E333D",
":+	c #2B303A",
"<+	c #4C4D54",
"[+	c #94959C",
"}+	c #95959B",
"|+	c #393A42",
"1+	c #292E38",
"2+	c #2F333D",
"3+	c #30353F",
"4+	c #323742",
"5+	c #353A45",
"6+	c #373C48",
"7+	c #3A404D",
"8+	c #3C4250",
"9+	c #3D4250",
"0+	c #3C414E",
"a+	c #3D424F",
"b+	c #363D4D",
"c+	c #275A96",
"d+	c #0F81F7",
"e+	c #0B85FB",
"f+	c #0B71E9",
"g+	c #1A2536",
"h+	c #282E3A",
"i+	c #2F343D",
"j+	c #2F333E",
"k+	c #2A2E39",
"l+	c #4D4E54",
"m+	c #96969D",
"n+	c #96969C",
"o+	c #393B42",
"p+	c #292D37",
"q+	c #2D323C",
"r+	c #333944",
"s+	c #353945",
"t+	c #353A46",
"u+	c #353A48",
"v+	c #3A3536",
"w+	c #30476C",
"x+	c #1860C3",
"y+	c #0D76F3",
"z+	c #0981FF",
"A+	c #0A6FF1",
"B+	c #0B49AA",
"C+	c #1B1F29",
"D+	c #2C313E",
"E+	c #30353D",
"F+	c #2E323D",
"G+	c #2A2F38",
"H+	c #98989E",
"I+	c #96969B",
"J+	c #3B3C43",
"K+	c #282D36",
"L+	c #2D313B",
"M+	c #2E333C",
"N+	c #30343D",
"O+	c #2F353F",
"P+	c #2C313C",
"Q+	c #313641",
"R+	c #2D333F",
"S+	c #545358",
"T+	c #2F7BC6",
"U+	c #1A6CDE",
"V+	c #0A78FA",
"W+	c #0A67EA",
"X+	c #0951DF",
"Y+	c #082D79",
"Z+	c #1C1E23",
"`+	c #2E3441",
" @	c #30343E",
".@	c #2E313B",
"+@	c #4E4F56",
"@@	c #3C3D44",
"#@	c #282D37",
"$@	c #2B313B",
"%@	c #252A33",
"&@	c #272C35",
"*@	c #292F39",
"=@	c #2F333F",
"-@	c #55575E",
";@	c #818183",
">@	c #9297A1",
",@	c #898988",
"'@	c #0540C3",
")@	c #0840CF",
"!@	c #0C1E46",
"~@	c #1A1F2A",
"{@	c #262B34",
"]@	c #272B35",
"^@	c #292E37",
"/@	c #2C313A",
"(@	c #4F5156",
"_@	c #97979E",
":@	c #292D36",
"<@	c #2B3038",
"[@	c #2B3039",
"}@	c #2B313A",
"|@	c #2A3039",
"1@	c #252B35",
"2@	c #67696D",
"3@	c #A2A2A2",
"4@	c #A3A3A5",
"5@	c #868B92",
"6@	c #818793",
"7@	c #0433BC",
"8@	c #0F1934",
"9@	c #272D37",
"0@	c #2C3039",
"a@	c #2C3038",
"b@	c #2A2E37",
"c@	c #4F5056",
"d@	c #96979D",
"e@	c #939399",
"f@	c #3B3D43",
"g@	c #282C36",
"h@	c #2B2F38",
"i@	c #2C2F39",
"j@	c #2B2F3A",
"k@	c #7E7F82",
"l@	c #A9A9AA",
"m@	c #A7A7A8",
"n@	c #8A8A8B",
"o@	c #5B5B5D",
"p@	c #232C48",
"q@	c #11161E",
"r@	c #2A313D",
"s@	c #292E3A",
"t@	c #2D323D",
"u@	c #282E36",
"v@	c #4D4E55",
"w@	c #95959C",
"x@	c #909096",
"y@	c #2B2F37",
"z@	c #373B44",
"A@	c #969696",
"B@	c #A5A5A6",
"C@	c #8E8E8F",
"D@	c #69696D",
"E@	c #1F222C",
"F@	c #0F1421",
"G@	c #1E232F",
"H@	c #2D323E",
"I@	c #272D38",
"J@	c #2C303A",
"K@	c #2A2F37",
"L@	c #4E4F55",
"M@	c #93939A",
"N@	c #8E8E93",
"O@	c #3B3D44",
"P@	c #232831",
"Q@	c #53565B",
"R@	c #9F9E9D",
"S@	c #8B8B8B",
"T@	c #45474C",
"U@	c #161822",
"V@	c #060C18",
"W@	c #1F2531",
"X@	c #2C313F",
"Y@	c #272D39",
"Z@	c #262C36",
"`@	c #29303B",
" #	c #2A2E38",
".#	c #8E8F96",
"+#	c #3D3E46",
"@#	c #262A33",
"##	c #696A6D",
"$#	c #757678",
"%#	c #33373E",
"&#	c #060B18",
"*#	c #161C29",
"=#	c #29303D",
"-#	c #272F3B",
";#	c #212833",
">#	c #242A36",
",#	c #2A303E",
"'#	c #2B303E",
")#	c #2B323F",
"!#	c #282F3B",
"~#	c #282E38",
"{#	c #4C4E55",
"]#	c #88888F",
"^#	c #7E7E85",
"/#	c #43444C",
"(#	c #262B35",
"_#	c #2F333B",
":#	c #4C4E51",
"<#	c #21272F",
"[#	c #141924",
"}#	c #1D222D",
"|#	c #292E39",
"1#	c #2B313F",
"2#	c #262D38",
"3#	c #2B313E",
"4#	c #2B303C",
"5#	c #292F38",
"6#	c #52535A",
"7#	c #808087",
"8#	c #6F7076",
"9#	c #5D5D66",
"0#	c #252B34",
"a#	c #1E222D",
"b#	c #242832",
"c#	c #272E37",
"d#	c #2A303C",
"e#	c #2B313D",
"f#	c #2C3340",
"g#	c #272E3B",
"h#	c #2B3340",
"i#	c #68696F",
"j#	c #707178",
"k#	c #9F9FA4",
"l#	c #2A2D37",
"m#	c #2B323B",
"n#	c #2D333E",
"o#	c #2F3440",
"p#	c #2C323D",
"q#	c #2B323D",
"r#	c #2C313D",
"s#	c #2B303D",
"t#	c #282D3A",
"u#	c #282D3B",
"v#	c #2C323C",
"w#	c #2E343E",
"x#	c #2F3441",
"y#	c #2F3540",
"z#	c #2A303A",
"A#	c #9B9CA1",
"B#	c #4E4E56",
"C#	c #72737B",
"D#	c #A2A3A7",
"E#	c #4C4E57",
"F#	c #262C35",
"G#	c #303642",
"H#	c #313743",
"I#	c #2F3642",
"J#	c #2F3644",
"K#	c #2F3643",
"L#	c #2F3543",
"M#	c #2D3341",
"N#	c #2D3340",
"O#	c #303743",
"P#	c #2F3640",
"Q#	c #50525A",
"R#	c #9F9FA5",
"S#	c #6A6A73",
"T#	c #62626C",
"U#	c #9F9FA7",
"V#	c #8A8A92",
"W#	c #363942",
"X#	c #232932",
"Y#	c #2F343F",
"Z#	c #313744",
"`#	c #343C4A",
" $	c #363F52",
".$	c #394258",
"+$	c #3A455D",
"@$	c #39435B",
"#$	c #394358",
"$$	c #373F52",
"%$	c #343B4A",
"&$	c #323744",
"*$	c #222730",
"=$	c #3C3F47",
"-$	c #909198",
";$	c #9D9DA6",
">$	c #61616C",
",$	c #7D7E88",
"'$	c #ACACB5",
")$	c #717179",
"!$	c #2A2E36",
"~$	c #29303A",
"{$	c #323949",
"]$	c #353D4F",
"^$	c #3A4256",
"/$	c #394256",
"($	c #373F53",
"_$	c #353D4E",
":$	c #333A49",
"<$	c #272B33",
"[$	c #75767D",
"}$	c #A8A8B0",
"|$	c #787984",
"1$	c #8B8B95",
"2$	c #A1A1A9",
"3$	c #575861",
"4$	c #1F252E",
"5$	c #303847",
"6$	c #313948",
"7$	c #313846",
"8$	c #303742",
"9$	c #1F252F",
"0$	c #5B5C64",
"a$	c #A6A6AD",
"b$	c #8A8A94",
"c$	c #6A6A75",
"d$	c #93949D",
"e$	c #8F8F98",
"f$	c #3E414A",
"g$	c #242932",
"h$	c #2E333E",
"i$	c #2E323E",
"j$	c #2D333D",
"k$	c #3C3E47",
"l$	c #8F8F97",
"m$	c #90909A",
"n$	c #666672",
"o$	c #6A6B76",
"p$	c #73747D",
"q$	c #292D35",
"r$	c #75767E",
"s$	c #92929B",
"t$	c #696A75",
"u$	c #686974",
"v$	c #82828D",
"w$	c #6B6C76",
"x$	c #6A6C75",
"y$	c #81808B",
"z$	c #666773",
"A$	c #474855",
"B$	c #5E5F6A",
"C$	c #5F606C",
"                              . .                               ",
"                          + @ # $ % &                           ",
"                      * = - ; > , ' ) ! ~                       ",
"                  { ] ^ / ( _ : < [ ( } | 1 2                   ",
"                3 4 5 6 7 8 9 0 a b c d e f g h                 ",
"            i j k l m n o p q r s t u v w x l y @ z             ",
"        A B C D E F G H I J K L M N O P Q R S T U V W X         ",
"      Y Z `  ...+.@.#.$.%.&.*.=.-.;.>.,.'.).!.~.{.].^./.Y       ",
"    (._.:.<.[.}.|.1.2.3.q 4.5.6.7.8.9.0.a.b.c.|.}.d.<.e.f.g.    ",
"    h.i.j.k.l.m.n.o.p.q.9 r.s.t.u.v.w.x.y.#.z.A.B.C.D.E.F.G.    ",
"    H.I.J.K.+.L.A.M.N.O.P.Q.P R.b S.R.T.U.V.W.X.Y.Z.`. +.+++    ",
"    @+#+$+%+&+*+A.=+-+;+2.>+,+'+'+b.)+!+~+{+]+^+/+(+_+:+<+[+    ",
"    }+|+1+2+3+4+5+6+M.7+n.c.8+9+0+a+b+c+d+e+f+g+h+i+j+k+l+m+    ",
"    n+o+p+q+i+K.4+r+s+l.~.t+u+v+w+x+y+z+A+B+C+D+K.E+F+G+l+H+    ",
"    I+J+K+L+M+N+O+k.%+P+Q+R+S+T+U+V+W+X+Y+Z+`+k. @2+.@1++@H+    ",
"    }+@@#@$@:+p+%@&@#@*@=@-@;@>@,@'@)@!@~@{@]@%@^@:+/@G+(@_@    ",
"    }+@@:@<@[@[@}@$+|@1@2@3@4@5@6@7@8@K+{@9@$+[.:+0@a@b@c@d@    ",
"    e@f@g@h@h@i@j@ +&+k@l@m@n@o@p@q@r@s@:+t@ +j@[@h@h@u@v@w@    ",
"    x@@@]@h@y@<@[@z@A@B@C@D@E@F@G@t@H@I@D+ +J@$+h@K@h@:@L@M@    ",
"    N@O@{@p+h@P@Q@R@S@T@U@V@W@X@X@h+Y@Z@`@[.j@G+h@ #^@&@+@.#    ",
"    G.+#@##@}@##$#%#&#*#=#X@-#;#>#,#'#)#!# +J.:+$+^@~#]@{#]#    ",
"    ^#/#(#_#:#<#[#}#|#D+D+1#( 2#2#3#1#D+D+4#$@J.5# #^@]@6#7#    ",
"    8#9#0#|#a#b#c#d#e#e#d.d.f#m g#h#d.3#e#e#[.|@:+[.P+$+i#j#    ",
"    6#k#l#m#n#o#n#p#q#r#e#s#3#t#u#e#s#r#v#e#p#w#x#y#z#h@A#B#    ",
"      C#D#E#F#}.G#S H#I#J#K#L#M#N#F L#J#S O#H#G#P#b#Q#R#S#      ",
"        T#U#V#W#X#%+Y#Z#`# $.$+$@$#$$$%$&$Y#%+*$=$-$;$>$        ",
"            ,$'$)$!$~$I#{$]$$$^$/$($_$:$L#*@<$[$}$|$            ",
"                1$2$3$4$+.K#5$6$6$7$K#8$9$0$a$b$                ",
"                  c$d$e$f$g$h$i$H@j$P@k$l$m$n$                  ",
"                      o$e$p$q$/@/@!$r$s$t$                      ",
"                          u$v$w$x$y$z$                          ",
"                            A$B$C$                              "};
